<svg width="137" height="86" viewBox="0 0 137 86" fill="none" xmlns="http://www.w3.org/2000/svg">
<rect width="137" height="86" fill="#F5F5F5"/>
<rect width="393" height="852" transform="translate(-55 -81)" fill="white"/>
<g filter="url(#filter0_i_0_1)">
<path fill-rule="evenodd" clip-rule="evenodd" d="M34.5 0C15.4462 0 0 15.4462 0 34.5C0 53.5538 15.4462 69 34.5 69H59.2345L67.5475 84.3024C68.4693 85.9993 71.2857 85.0415 72.523 82.6104L79.4501 69H102.5C121.554 69 137 53.5538 137 34.5C137 15.4462 121.554 0 102.5 0H34.5Z" fill="#C72A5F"/>
</g>
<path d="M54.0086 27.355C54.3686 27.355 54.6336 27.445 54.8036 27.625C54.9736 27.805 55.0586 28.035 55.0586 28.315C55.0586 28.555 54.9736 28.765 54.8036 28.945C54.6436 29.135 54.3786 29.23 54.0086 29.23H48.0236C47.6436 29.23 47.3436 29.11 47.1236 28.87C46.9036 28.63 46.7936 28.345 46.7936 28.015C46.7936 27.775 46.8836 27.515 47.0636 27.235C47.5036 26.635 48.3636 25.765 49.6436 24.625C50.5536 23.815 51.2286 23.145 51.6686 22.615C52.1186 22.085 52.3436 21.58 52.3436 21.1C52.3436 20.68 52.2586 20.34 52.0886 20.08C51.9186 19.81 51.5736 19.675 51.0536 19.675C50.6136 19.675 50.2436 19.785 49.9436 20.005C49.6536 20.215 49.5086 20.52 49.5086 20.92C49.5086 21.16 49.4036 21.36 49.1936 21.52C48.9936 21.68 48.7086 21.76 48.3386 21.76C47.9886 21.76 47.6936 21.675 47.4536 21.505C47.2236 21.325 47.1086 21.045 47.1086 20.665C47.1086 20.095 47.2886 19.59 47.6486 19.15C48.0086 18.71 48.4836 18.37 49.0736 18.13C49.6736 17.89 50.3086 17.77 50.9786 17.77C52.1986 17.77 53.1536 18.06 53.8436 18.64C54.5336 19.22 54.8786 20 54.8786 20.98C54.8786 21.53 54.7536 22.05 54.5036 22.54C54.2536 23.03 53.9286 23.495 53.5286 23.935C53.1286 24.365 52.5986 24.88 51.9386 25.48L51.5786 25.81C50.8786 26.43 50.3486 26.945 49.9886 27.355H54.0086ZM61.0209 29.305C59.6709 29.305 58.6409 29.025 57.9309 28.465C57.2309 27.905 56.8809 27 56.8809 25.75V21.325C56.8809 20.075 57.2309 19.17 57.9309 18.61C58.6409 18.05 59.6709 17.77 61.0209 17.77C63.8109 17.77 65.2059 18.97 65.2059 21.37V25.75C65.1459 28.12 63.7509 29.305 61.0209 29.305ZM59.4759 25.765C59.4759 26.375 59.5809 26.81 59.7909 27.07C60.0009 27.32 60.4109 27.445 61.0209 27.445C61.6209 27.445 62.0309 27.315 62.2509 27.055C62.4809 26.785 62.5959 26.355 62.5959 25.765V21.34C62.5759 20.91 62.5209 20.575 62.4309 20.335C62.3509 20.095 62.2009 19.92 61.9809 19.81C61.7609 19.69 61.4409 19.63 61.0209 19.63C60.4109 19.63 60.0009 19.76 59.7909 20.02C59.5809 20.28 59.4759 20.72 59.4759 21.34V25.765ZM74.2234 27.355C74.5834 27.355 74.8484 27.445 75.0184 27.625C75.1884 27.805 75.2734 28.035 75.2734 28.315C75.2734 28.555 75.1884 28.765 75.0184 28.945C74.8584 29.135 74.5934 29.23 74.2234 29.23H68.2384C67.8584 29.23 67.5584 29.11 67.3384 28.87C67.1184 28.63 67.0084 28.345 67.0084 28.015C67.0084 27.775 67.0984 27.515 67.2784 27.235C67.7184 26.635 68.5784 25.765 69.8584 24.625C70.7684 23.815 71.4434 23.145 71.8834 22.615C72.3334 22.085 72.5584 21.58 72.5584 21.1C72.5584 20.68 72.4734 20.34 72.3034 20.08C72.1334 19.81 71.7884 19.675 71.2684 19.675C70.8284 19.675 70.4584 19.785 70.1584 20.005C69.8684 20.215 69.7234 20.52 69.7234 20.92C69.7234 21.16 69.6184 21.36 69.4084 21.52C69.2084 21.68 68.9234 21.76 68.5534 21.76C68.2034 21.76 67.9084 21.675 67.6684 21.505C67.4384 21.325 67.3234 21.045 67.3234 20.665C67.3234 20.095 67.5034 19.59 67.8634 19.15C68.2234 18.71 68.6984 18.37 69.2884 18.13C69.8884 17.89 70.5234 17.77 71.1934 17.77C72.4134 17.77 73.3684 18.06 74.0584 18.64C74.7484 19.22 75.0934 20 75.0934 20.98C75.0934 21.53 74.9684 22.05 74.7184 22.54C74.4684 23.03 74.1434 23.495 73.7434 23.935C73.3434 24.365 72.8134 24.88 72.1534 25.48L71.7934 25.81C71.0934 26.43 70.5634 26.945 70.2034 27.355H74.2234ZM81.1007 27.445C81.8107 27.445 82.3257 27.32 82.6457 27.07C82.9757 26.81 83.1407 26.39 83.1407 25.81V25.555C83.1407 25.055 82.9607 24.7 82.6007 24.49C82.2507 24.27 81.7507 24.16 81.1007 24.16C80.7807 24.16 80.5457 24.075 80.3957 23.905C80.2457 23.725 80.1707 23.52 80.1707 23.29C80.1707 23.04 80.2457 22.835 80.3957 22.675C80.5457 22.505 80.7807 22.42 81.1007 22.42C82.2307 22.42 82.7957 21.95 82.7957 21.01C82.7957 20.08 82.2557 19.615 81.1757 19.615C80.5657 19.615 80.1257 19.73 79.8557 19.96C79.5857 20.18 79.4507 20.44 79.4507 20.74C79.4507 21.03 79.3407 21.265 79.1207 21.445C78.9107 21.625 78.6007 21.715 78.1907 21.715C77.7707 21.715 77.4657 21.63 77.2757 21.46C77.0957 21.28 77.0057 20.995 77.0057 20.605C77.0057 20.185 77.1307 19.76 77.3807 19.33C77.6307 18.9 78.0657 18.535 78.6857 18.235C79.3157 17.925 80.1557 17.77 81.2057 17.77C82.4757 17.77 83.4807 18.01 84.2207 18.49C84.9607 18.97 85.3307 19.715 85.3307 20.725C85.3307 21.385 85.2257 21.91 85.0157 22.3C84.8157 22.69 84.5057 23 84.0857 23.23C85.1857 23.64 85.7357 24.415 85.7357 25.555V25.81C85.7357 27.02 85.3057 27.905 84.4457 28.465C83.5957 29.025 82.4807 29.305 81.1007 29.305C80.0907 29.305 79.2457 29.17 78.5657 28.9C77.8857 28.63 77.3807 28.285 77.0507 27.865C76.7307 27.435 76.5707 26.99 76.5707 26.53C76.5707 26.17 76.6657 25.905 76.8557 25.735C77.0457 25.555 77.3557 25.465 77.7857 25.465C78.2957 25.465 78.6457 25.55 78.8357 25.72C79.0257 25.89 79.1207 26.14 79.1207 26.47C79.1207 26.75 79.2907 26.985 79.6307 27.175C79.9707 27.355 80.4607 27.445 81.1007 27.445ZM87.6973 27.31C87.9373 27.09 88.3073 26.98 88.8073 26.98C89.2673 26.98 89.6323 27.105 89.9023 27.355C90.1823 27.595 90.3223 27.92 90.3223 28.33C90.3223 28.73 90.2773 29.095 90.1873 29.425C90.0973 29.755 89.8673 30.095 89.4973 30.445C89.3673 30.565 89.2173 30.655 89.0473 30.715C88.8873 30.785 88.7273 30.82 88.5673 30.82C88.3473 30.82 88.1773 30.765 88.0573 30.655C87.9473 30.555 87.8923 30.43 87.8923 30.28C87.8923 30.14 87.9373 30.03 88.0273 29.95C88.2573 29.75 88.3873 29.485 88.4173 29.155C88.1473 29.165 87.8973 29.07 87.6673 28.87C87.4473 28.67 87.3373 28.425 87.3373 28.135C87.3373 27.805 87.4573 27.53 87.6973 27.31ZM25.3977 50.04C25.1177 50.04 24.8877 50.01 24.7077 49.95C24.5277 49.89 24.3877 49.81 24.2877 49.71C24.1877 49.62 24.1177 49.51 24.0777 49.38C24.0477 49.26 24.0327 49.14 24.0327 49.02C24.0327 48.87 24.0477 48.73 24.0777 48.6C24.1177 48.48 24.1877 48.37 24.2877 48.27C24.3877 48.18 24.5277 48.105 24.7077 48.045C24.8877 47.995 25.1177 47.97 25.3977 47.97H27.9327V44.52C27.9327 44.02 28.0527 43.68 28.2927 43.5C28.5427 43.31 28.8277 43.215 29.1477 43.215C29.3077 43.215 29.4577 43.235 29.5977 43.275C29.7477 43.315 29.8777 43.385 29.9877 43.485C30.0977 43.585 30.1877 43.72 30.2577 43.89C30.3277 44.06 30.3627 44.27 30.3627 44.52V47.97H35.8227C36.1027 47.97 36.3327 47.995 36.5127 48.045C36.6927 48.105 36.8327 48.18 36.9327 48.27C37.0327 48.37 37.0977 48.48 37.1277 48.6C37.1677 48.73 37.1877 48.87 37.1877 49.02C37.1877 49.14 37.1677 49.26 37.1277 49.38C37.0977 49.51 37.0327 49.62 36.9327 49.71C36.8327 49.81 36.6927 49.89 36.5127 49.95C36.3327 50.01 36.1027 50.04 35.8227 50.04H25.3977ZM33.6927 45.36C33.4527 45.25 33.2727 45.095 33.1527 44.895C33.0427 44.685 33.0377 44.43 33.1377 44.13C33.2377 43.79 33.3177 43.475 33.3777 43.185C33.4377 42.895 33.4777 42.615 33.4977 42.345C33.5177 42.075 33.5277 41.8 33.5277 41.52C33.5377 41.24 33.5427 40.935 33.5427 40.605V39.75H26.4027C26.1227 39.75 25.8927 39.725 25.7127 39.675C25.5327 39.615 25.3927 39.54 25.2927 39.45C25.1927 39.35 25.1227 39.24 25.0827 39.12C25.0527 38.99 25.0377 38.85 25.0377 38.7C25.0377 38.58 25.0527 38.46 25.0827 38.34C25.1227 38.21 25.1927 38.1 25.2927 38.01C25.3927 37.91 25.5327 37.83 25.7127 37.77C25.8927 37.71 26.1227 37.68 26.4027 37.68H34.8777C35.1477 37.68 35.3577 37.71 35.5077 37.77C35.6577 37.82 35.7727 37.895 35.8527 37.995C35.9327 38.085 35.9827 38.2 36.0027 38.34C36.0227 38.48 36.0327 38.64 36.0327 38.82V40.47C36.0327 40.95 36.0227 41.415 36.0027 41.865C35.9927 42.305 35.9577 42.72 35.8977 43.11C35.8477 43.49 35.7677 43.845 35.6577 44.175C35.5577 44.505 35.4127 44.795 35.2227 45.045C35.1227 45.185 35.0077 45.29 34.8777 45.36C34.7477 45.42 34.6127 45.46 34.4727 45.48C34.3327 45.5 34.1927 45.5 34.0527 45.48C33.9227 45.45 33.8027 45.41 33.6927 45.36ZM41.5556 50.4C41.0856 50.39 40.6856 50.305 40.3556 50.145C40.0256 49.985 39.7606 49.775 39.5606 49.515C39.3606 49.265 39.2156 48.975 39.1256 48.645C39.0356 48.325 38.9906 47.99 38.9906 47.64C38.9906 47.29 39.0306 46.95 39.1106 46.62C39.1906 46.29 39.3256 46 39.5156 45.75C39.7156 45.49 39.9806 45.285 40.3106 45.135C40.6506 44.975 41.0756 44.89 41.5856 44.88H48.3056C48.8156 44.88 49.2356 44.96 49.5656 45.12C49.9056 45.27 50.1706 45.475 50.3606 45.735C50.5606 45.985 50.7006 46.28 50.7806 46.62C50.8606 46.95 50.9006 47.29 50.9006 47.64C50.9006 47.99 50.8556 48.325 50.7656 48.645C50.6756 48.975 50.5256 49.265 50.3156 49.515C50.1156 49.775 49.8506 49.985 49.5206 50.145C49.2006 50.305 48.8056 50.39 48.3356 50.4H41.5556ZM47.6606 48.36C47.9506 48.34 48.1606 48.28 48.2906 48.18C48.4206 48.09 48.4856 47.91 48.4856 47.64C48.4856 47.36 48.4206 47.175 48.2906 47.085C48.1606 46.985 47.9506 46.925 47.6606 46.905H42.2306C41.9406 46.925 41.7306 46.985 41.6006 47.085C41.4706 47.175 41.4056 47.36 41.4056 47.64C41.4056 47.91 41.4706 48.09 41.6006 48.18C41.7306 48.28 41.9406 48.34 42.2306 48.36H47.6606ZM39.1406 44.145C38.9706 44.155 38.7956 44.125 38.6156 44.055C38.4356 43.985 38.2856 43.85 38.1656 43.65C37.9656 43.33 37.9106 43.05 38.0006 42.81C38.0906 42.57 38.2956 42.335 38.6156 42.105C38.9856 41.845 39.2756 41.605 39.4856 41.385C39.6956 41.155 39.8506 40.92 39.9506 40.68C40.0606 40.44 40.1306 40.185 40.1606 39.915C40.1906 39.635 40.2056 39.315 40.2056 38.955V38.73C40.2056 38.48 40.2406 38.27 40.3106 38.1C40.3806 37.93 40.4706 37.795 40.5806 37.695C40.7006 37.595 40.8356 37.525 40.9856 37.485C41.1356 37.445 41.2906 37.425 41.4506 37.425C41.6106 37.425 41.7656 37.445 41.9156 37.485C42.0656 37.525 42.1956 37.595 42.3056 37.695C42.4256 37.795 42.5206 37.93 42.5906 38.1C42.6606 38.27 42.6956 38.48 42.6956 38.73V38.91C42.6956 39.27 42.7056 39.585 42.7256 39.855C42.7456 40.125 42.8056 40.375 42.9056 40.605C43.0156 40.835 43.1756 41.06 43.3856 41.28C43.5956 41.49 43.8906 41.73 44.2706 42C44.5906 42.23 44.7956 42.465 44.8856 42.705C44.9756 42.945 44.9206 43.225 44.7206 43.545C44.6106 43.715 44.4756 43.845 44.3156 43.935C44.1656 44.015 44.0006 44.06 43.8206 44.07C43.7106 44.07 43.5956 44.06 43.4756 44.04C43.3556 44.01 43.2406 43.955 43.1306 43.875C42.8406 43.665 42.5656 43.435 42.3056 43.185C42.0556 42.925 41.8156 42.65 41.5856 42.36C41.3856 42.67 41.1556 42.955 40.8956 43.215C40.6356 43.465 40.3506 43.68 40.0406 43.86C39.9106 43.94 39.7656 44.005 39.6056 44.055C39.4556 44.105 39.3006 44.135 39.1406 44.145ZM46.3106 44.37C45.9906 44.37 45.7306 44.28 45.5306 44.1C45.3406 43.92 45.2456 43.57 45.2456 43.05V38.655C45.2456 38.155 45.3406 37.815 45.5306 37.635C45.7206 37.445 45.9756 37.35 46.2956 37.35C46.6056 37.35 46.8556 37.445 47.0456 37.635C47.2456 37.815 47.3456 38.155 47.3456 38.655V39.72H48.5906V38.655C48.5906 38.155 48.6856 37.815 48.8756 37.635C49.0656 37.445 49.3206 37.35 49.6406 37.35C49.9506 37.35 50.2006 37.445 50.3906 37.635C50.5906 37.815 50.6906 38.155 50.6906 38.655V43.05C50.6906 43.57 50.5956 43.92 50.4056 44.1C50.2256 44.28 49.9756 44.37 49.6556 44.37C49.3356 44.37 49.0756 44.28 48.8756 44.1C48.6856 43.92 48.5906 43.57 48.5906 43.05V41.85H47.3456V43.05C47.3456 43.57 47.2506 43.92 47.0606 44.1C46.8806 44.28 46.6306 44.37 46.3106 44.37ZM62.7835 46.725C62.6235 46.725 62.4685 46.705 62.3185 46.665C62.1785 46.625 62.0485 46.555 61.9285 46.455C61.8185 46.355 61.7285 46.22 61.6585 46.05C61.5985 45.88 61.5685 45.665 61.5685 45.405V38.655C61.5685 38.155 61.6885 37.815 61.9285 37.635C62.1785 37.445 62.4635 37.35 62.7835 37.35C62.9435 37.35 63.0935 37.37 63.2335 37.41C63.3835 37.45 63.5135 37.52 63.6235 37.62C63.7335 37.72 63.8235 37.855 63.8935 38.025C63.9635 38.195 63.9985 38.405 63.9985 38.655V41.07H64.9435C65.2235 41.07 65.4535 41.1 65.6335 41.16C65.8135 41.22 65.9535 41.3 66.0535 41.4C66.1535 41.49 66.2185 41.6 66.2485 41.73C66.2885 41.85 66.3085 41.97 66.3085 42.09C66.3085 42.24 66.2885 42.38 66.2485 42.51C66.2185 42.63 66.1535 42.74 66.0535 42.84C65.9535 42.93 65.8135 43.005 65.6335 43.065C65.4535 43.115 65.2235 43.14 64.9435 43.14H63.9985V45.405C63.9985 45.665 63.9635 45.88 63.8935 46.05C63.8235 46.22 63.7335 46.355 63.6235 46.455C63.5135 46.555 63.3835 46.625 63.2335 46.665C63.0935 46.705 62.9435 46.725 62.7835 46.725ZM54.4285 50.385C54.1485 50.385 53.9285 50.355 53.7685 50.295C53.6085 50.245 53.4835 50.17 53.3935 50.07C53.3135 49.98 53.2635 49.87 53.2435 49.74C53.2235 49.62 53.2135 49.485 53.2135 49.335V47.79C53.2135 47.54 53.2535 47.335 53.3335 47.175C53.4135 47.005 53.5185 46.875 53.6485 46.785C53.7785 46.685 53.9185 46.615 54.0685 46.575C54.2285 46.535 54.3835 46.515 54.5335 46.515C54.8335 46.515 55.0935 46.605 55.3135 46.785C55.5335 46.955 55.6435 47.29 55.6435 47.79V48.315H63.0385C63.3185 48.315 63.5485 48.345 63.7285 48.405C63.9085 48.465 64.0485 48.54 64.1485 48.63C64.2485 48.73 64.3135 48.84 64.3435 48.96C64.3835 49.09 64.4035 49.215 64.4035 49.335C64.4035 49.485 64.3835 49.62 64.3435 49.74C64.3135 49.87 64.2485 49.98 64.1485 50.07C64.0485 50.17 63.9085 50.245 63.7285 50.295C63.5485 50.355 63.3185 50.385 63.0385 50.385H54.4285ZM56.2285 46.26C55.1185 46.26 54.3035 46.09 53.7835 45.75C53.2635 45.4 53.0035 44.805 53.0035 43.965C53.0035 43.115 53.2635 42.515 53.7835 42.165C54.3035 41.815 55.1185 41.64 56.2285 41.64C57.3385 41.64 58.1535 41.815 58.6735 42.165C59.1935 42.515 59.4535 43.115 59.4535 43.965C59.4535 44.415 59.3885 44.79 59.2585 45.09C59.1285 45.39 58.9335 45.625 58.6735 45.795C58.4135 45.965 58.0785 46.085 57.6685 46.155C57.2585 46.225 56.7785 46.26 56.2285 46.26ZM56.2285 44.595C56.6085 44.595 56.8485 44.54 56.9485 44.43C57.0585 44.32 57.1135 44.165 57.1135 43.965C57.1135 43.765 57.0585 43.61 56.9485 43.5C56.8485 43.39 56.6085 43.335 56.2285 43.335C55.8585 43.335 55.6185 43.39 55.5085 43.5C55.3985 43.61 55.3435 43.765 55.3435 43.965C55.3435 44.165 55.3985 44.32 55.5085 44.43C55.6185 44.54 55.8585 44.595 56.2285 44.595ZM53.7685 41.1C53.4885 41.1 53.2585 41.08 53.0785 41.04C52.8985 41 52.7585 40.945 52.6585 40.875C52.5585 40.805 52.4885 40.72 52.4485 40.62C52.4185 40.51 52.4035 40.395 52.4035 40.275C52.4035 40.125 52.4185 39.995 52.4485 39.885C52.4885 39.775 52.5585 39.685 52.6585 39.615C52.7585 39.535 52.8985 39.475 53.0785 39.435C53.2585 39.395 53.4885 39.375 53.7685 39.375H58.6885C58.9685 39.375 59.1985 39.395 59.3785 39.435C59.5585 39.475 59.6985 39.535 59.7985 39.615C59.8985 39.685 59.9635 39.775 59.9935 39.885C60.0335 39.995 60.0535 40.125 60.0535 40.275C60.0535 40.395 60.0335 40.51 59.9935 40.62C59.9635 40.72 59.8985 40.805 59.7985 40.875C59.6985 40.945 59.5585 41 59.3785 41.04C59.1985 41.08 58.9685 41.1 58.6885 41.1H53.7685ZM54.7135 38.85C54.1535 38.85 53.7835 38.785 53.6035 38.655C53.4335 38.515 53.3485 38.32 53.3485 38.07C53.3485 37.78 53.4335 37.575 53.6035 37.455C53.7835 37.325 54.1535 37.26 54.7135 37.26H57.7435C58.3035 37.26 58.6685 37.325 58.8385 37.455C59.0185 37.575 59.1085 37.78 59.1085 38.07C59.1085 38.32 59.0185 38.515 58.8385 38.655C58.6685 38.785 58.3035 38.85 57.7435 38.85H54.7135ZM73.1485 49.845C72.8685 49.845 72.6485 49.815 72.4885 49.755C72.3285 49.705 72.2035 49.63 72.1135 49.53C72.0335 49.44 71.9835 49.33 71.9635 49.2C71.9435 49.08 71.9335 48.945 71.9335 48.795V38.805C71.9335 38.305 72.0535 37.965 72.2935 37.785C72.5435 37.595 72.8285 37.5 73.1485 37.5C73.3085 37.5 73.4585 37.52 73.5985 37.56C73.7485 37.6 73.8785 37.67 73.9885 37.77C74.0985 37.87 74.1885 38.005 74.2585 38.175C74.3285 38.345 74.3635 38.555 74.3635 38.805V47.775H76.5535C76.8335 47.775 77.0635 47.805 77.2435 47.865C77.4235 47.925 77.5635 48 77.6635 48.09C77.7635 48.19 77.8285 48.3 77.8585 48.42C77.8985 48.55 77.9185 48.675 77.9185 48.795C77.9185 48.945 77.8985 49.08 77.8585 49.2C77.8285 49.33 77.7635 49.44 77.6635 49.53C77.5635 49.63 77.4235 49.705 77.2435 49.755C77.0635 49.815 76.8335 49.845 76.5535 49.845H73.1485ZM81.3835 50.22C81.2235 50.22 81.0685 50.2 80.9185 50.16C80.7785 50.12 80.6485 50.05 80.5285 49.95C80.4185 49.85 80.3285 49.715 80.2585 49.545C80.1985 49.375 80.1685 49.16 80.1685 48.9V38.655C80.1685 38.155 80.2885 37.815 80.5285 37.635C80.7785 37.445 81.0635 37.35 81.3835 37.35C81.5435 37.35 81.6935 37.37 81.8335 37.41C81.9835 37.45 82.1135 37.52 82.2235 37.62C82.3335 37.72 82.4235 37.855 82.4935 38.025C82.5635 38.195 82.5985 38.405 82.5985 38.655V42.255H83.5435C83.8235 42.255 84.0535 42.285 84.2335 42.345C84.4135 42.405 84.5535 42.485 84.6535 42.585C84.7535 42.675 84.8185 42.785 84.8485 42.915C84.8885 43.035 84.9085 43.155 84.9085 43.275C84.9085 43.425 84.8885 43.565 84.8485 43.695C84.8185 43.815 84.7535 43.925 84.6535 44.025C84.5535 44.115 84.4135 44.19 84.2335 44.25C84.0535 44.3 83.8235 44.325 83.5435 44.325H82.5985V48.9C82.5985 49.16 82.5635 49.375 82.4935 49.545C82.4235 49.715 82.3335 49.85 82.2235 49.95C82.1135 50.05 81.9835 50.12 81.8335 50.16C81.6935 50.2 81.5435 50.22 81.3835 50.22ZM94.1365 50.22C93.9965 50.22 93.8615 50.2 93.7315 50.16C93.6015 50.12 93.4865 50.05 93.3865 49.95C93.2965 49.85 93.2215 49.715 93.1615 49.545C93.1015 49.375 93.0715 49.16 93.0715 48.9V44.175H91.4965V46.035C91.4965 46.295 91.4915 46.515 91.4815 46.695C91.4815 46.875 91.4815 46.995 91.4815 47.055C91.4715 47.555 91.4165 47.99 91.3165 48.36C91.2165 48.73 91.0515 49.035 90.8215 49.275C90.6015 49.515 90.3115 49.695 89.9515 49.815C89.5915 49.935 89.1465 49.995 88.6165 49.995C88.0765 49.995 87.6265 49.935 87.2665 49.815C86.9165 49.695 86.6315 49.51 86.4115 49.26C86.2015 49.02 86.0465 48.715 85.9465 48.345C85.8465 47.975 85.7815 47.545 85.7515 47.055C85.7415 46.965 85.7365 46.755 85.7365 46.425C85.7365 46.085 85.7315 45.685 85.7215 45.225C85.7215 44.765 85.7215 44.275 85.7215 43.755C85.7215 43.235 85.7215 42.745 85.7215 42.285C85.7315 41.825 85.7365 41.43 85.7365 41.1C85.7365 40.77 85.7415 40.56 85.7515 40.47C85.7815 39.97 85.8415 39.535 85.9315 39.165C86.0315 38.785 86.1865 38.47 86.3965 38.22C86.6165 37.97 86.9015 37.785 87.2515 37.665C87.6115 37.535 88.0665 37.47 88.6165 37.47C89.1365 37.47 89.5715 37.535 89.9215 37.665C90.2715 37.785 90.5565 37.975 90.7765 38.235C90.9965 38.485 91.1615 38.8 91.2715 39.18C91.3815 39.55 91.4515 39.98 91.4815 40.47C91.4815 40.55 91.4815 40.74 91.4815 41.04C91.4915 41.33 91.4965 41.685 91.4965 42.105H93.0715V38.655C93.0715 38.155 93.1765 37.815 93.3865 37.635C93.6065 37.445 93.8565 37.35 94.1365 37.35C94.4065 37.35 94.6465 37.445 94.8565 37.635C95.0765 37.815 95.1865 38.155 95.1865 38.655V48.9C95.1865 49.16 95.1565 49.375 95.0965 49.545C95.0365 49.715 94.9565 49.85 94.8565 49.95C94.7665 50.05 94.6565 50.12 94.5265 50.16C94.3965 50.2 94.2665 50.22 94.1365 50.22ZM88.6165 48.06C88.6965 48.06 88.7715 48.05 88.8415 48.03C88.9115 48.02 88.9715 47.98 89.0215 47.91C89.0715 47.84 89.1115 47.745 89.1415 47.625C89.1815 47.495 89.2065 47.315 89.2165 47.085C89.2265 46.985 89.2315 46.765 89.2315 46.425V42.225C89.2315 41.755 89.2265 41.355 89.2165 41.025C89.2165 40.685 89.2165 40.47 89.2165 40.38C89.2065 40.17 89.1865 40 89.1565 39.87C89.1265 39.74 89.0815 39.645 89.0215 39.585C88.9715 39.515 88.9115 39.47 88.8415 39.45C88.7715 39.43 88.6965 39.42 88.6165 39.42C88.5365 39.42 88.4615 39.435 88.3915 39.465C88.3215 39.485 88.2615 39.53 88.2115 39.6C88.1615 39.67 88.1165 39.775 88.0765 39.915C88.0465 40.045 88.0265 40.215 88.0165 40.425C88.0065 40.515 88.0015 40.735 88.0015 41.085C88.0015 41.425 87.9965 41.83 87.9865 42.3C87.9865 42.76 87.9865 43.255 87.9865 43.785C87.9965 44.305 88.0015 44.795 88.0015 45.255C88.0015 45.715 88.0015 46.115 88.0015 46.455C88.0015 46.795 88.0065 47.005 88.0165 47.085C88.0165 47.315 88.0315 47.495 88.0615 47.625C88.0915 47.745 88.1315 47.84 88.1815 47.91C88.2315 47.98 88.2915 48.02 88.3615 48.03C88.4415 48.05 88.5265 48.06 88.6165 48.06ZM97.3465 50.22C97.2065 50.22 97.0715 50.2 96.9415 50.16C96.8115 50.12 96.6965 50.05 96.5965 49.95C96.5065 49.85 96.4315 49.715 96.3715 49.545C96.3115 49.375 96.2815 49.16 96.2815 48.9V38.655C96.2815 38.155 96.3865 37.815 96.5965 37.635C96.8165 37.445 97.0665 37.35 97.3465 37.35C97.6165 37.35 97.8565 37.445 98.0665 37.635C98.2865 37.815 98.3965 38.155 98.3965 38.655V48.9C98.3965 49.16 98.3665 49.375 98.3065 49.545C98.2465 49.715 98.1665 49.85 98.0665 49.95C97.9765 50.05 97.8665 50.12 97.7365 50.16C97.6065 50.2 97.4765 50.22 97.3465 50.22ZM107.774 50.22C107.634 50.22 107.499 50.2 107.369 50.16C107.239 50.12 107.124 50.05 107.024 49.95C106.934 49.85 106.859 49.715 106.799 49.545C106.739 49.375 106.709 49.16 106.709 48.9V44.175H105.074C105.074 44.475 105.039 44.885 104.969 45.405C104.899 45.915 104.784 46.445 104.624 46.995C104.474 47.545 104.269 48.075 104.009 48.585C103.759 49.095 103.439 49.495 103.049 49.785C102.909 49.885 102.764 49.95 102.614 49.98C102.474 50.01 102.334 50.01 102.194 49.98C102.064 49.96 101.939 49.915 101.819 49.845C101.709 49.785 101.614 49.715 101.534 49.635C101.434 49.545 101.364 49.43 101.324 49.29C101.284 49.16 101.269 49.02 101.279 48.87C101.289 48.72 101.319 48.565 101.369 48.405C101.429 48.255 101.504 48.115 101.594 47.985C102.074 47.295 102.394 46.6 102.554 45.9C102.724 45.19 102.809 44.415 102.809 43.575V39.6H100.709C100.429 39.6 100.199 39.575 100.019 39.525C99.8394 39.465 99.6994 39.39 99.5994 39.3C99.4994 39.2 99.4294 39.09 99.3894 38.97C99.3594 38.84 99.3444 38.7 99.3444 38.55C99.3444 38.43 99.3594 38.31 99.3894 38.19C99.4294 38.06 99.4994 37.95 99.5994 37.86C99.6994 37.76 99.8394 37.68 100.019 37.62C100.199 37.56 100.429 37.53 100.709 37.53H103.919C104.189 37.53 104.399 37.56 104.549 37.62C104.699 37.67 104.814 37.745 104.894 37.845C104.974 37.935 105.024 38.05 105.044 38.19C105.064 38.33 105.074 38.49 105.074 38.67V42.105H106.709V38.655C106.709 38.155 106.814 37.815 107.024 37.635C107.244 37.445 107.494 37.35 107.774 37.35C108.044 37.35 108.284 37.445 108.494 37.635C108.714 37.815 108.824 38.155 108.824 38.655V48.9C108.824 49.16 108.794 49.375 108.734 49.545C108.674 49.715 108.594 49.85 108.494 49.95C108.404 50.05 108.294 50.12 108.164 50.16C108.034 50.2 107.904 50.22 107.774 50.22ZM110.954 50.22C110.814 50.22 110.679 50.2 110.549 50.16C110.419 50.12 110.304 50.05 110.204 49.95C110.114 49.85 110.039 49.715 109.979 49.545C109.919 49.375 109.889 49.16 109.889 48.9V38.655C109.889 38.155 109.994 37.815 110.204 37.635C110.424 37.445 110.674 37.35 110.954 37.35C111.224 37.35 111.464 37.445 111.674 37.635C111.894 37.815 112.004 38.155 112.004 38.655V48.9C112.004 49.16 111.974 49.375 111.914 49.545C111.854 49.715 111.774 49.85 111.674 49.95C111.584 50.05 111.474 50.12 111.344 50.16C111.214 50.2 111.084 50.22 110.954 50.22Z" fill="white"/>
<defs>
<filter id="filter0_i_0_1" x="0" y="0" width="137" height="89.1593" filterUnits="userSpaceOnUse" color-interpolation-filters="sRGB">
<feFlood flood-opacity="0" result="BackgroundImageFix"/>
<feBlend mode="normal" in="SourceGraphic" in2="BackgroundImageFix" result="shape"/>
<feColorMatrix in="SourceAlpha" type="matrix" values="0 0 0 0 0 0 0 0 0 0 0 0 0 0 0 0 0 0 127 0" result="hardAlpha"/>
<feOffset dy="4"/>
<feGaussianBlur stdDeviation="4"/>
<feComposite in2="hardAlpha" operator="arithmetic" k2="-1" k3="1"/>
<feColorMatrix type="matrix" values="0 0 0 0 0 0 0 0 0 0 0 0 0 0 0 0 0 0 0.25 0"/>
<feBlend mode="normal" in2="shape" result="effect1_innerShadow_0_1"/>
</filter>
</defs>
</svg>
