<svg width="137" height="86" viewBox="0 0 137 86" fill="none" xmlns="http://www.w3.org/2000/svg">
<rect width="137" height="86" fill="#F5F5F5"/>
<rect width="393" height="852" transform="translate(-202 -81)" fill="white"/>
<g filter="url(#filter0_i_0_1)">
<path fill-rule="evenodd" clip-rule="evenodd" d="M34.5 0C15.4462 0 0 15.4462 0 34.5C0 53.5538 15.4462 69 34.5 69H59.2345L67.5475 84.3024C68.4693 85.9993 71.2857 85.0415 72.523 82.6104L79.4501 69H102.5C121.554 69 137 53.5538 137 34.5C137 15.4462 121.554 0 102.5 0H34.5Z" fill="#C72A5F"/>
</g>
<path d="M56.6238 27.355C56.9838 27.355 57.2488 27.445 57.4188 27.625C57.5888 27.805 57.6738 28.035 57.6738 28.315C57.6738 28.555 57.5888 28.765 57.4188 28.945C57.2588 29.135 56.9938 29.23 56.6238 29.23H50.6388C50.2588 29.23 49.9588 29.11 49.7388 28.87C49.5188 28.63 49.4088 28.345 49.4088 28.015C49.4088 27.775 49.4988 27.515 49.6788 27.235C50.1188 26.635 50.9788 25.765 52.2588 24.625C53.1688 23.815 53.8438 23.145 54.2838 22.615C54.7338 22.085 54.9588 21.58 54.9588 21.1C54.9588 20.68 54.8738 20.34 54.7038 20.08C54.5338 19.81 54.1888 19.675 53.6688 19.675C53.2288 19.675 52.8588 19.785 52.5588 20.005C52.2688 20.215 52.1238 20.52 52.1238 20.92C52.1238 21.16 52.0188 21.36 51.8088 21.52C51.6088 21.68 51.3238 21.76 50.9538 21.76C50.6038 21.76 50.3088 21.675 50.0688 21.505C49.8388 21.325 49.7238 21.045 49.7238 20.665C49.7238 20.095 49.9038 19.59 50.2638 19.15C50.6238 18.71 51.0988 18.37 51.6888 18.13C52.2888 17.89 52.9238 17.77 53.5938 17.77C54.8138 17.77 55.7688 18.06 56.4588 18.64C57.1488 19.22 57.4938 20 57.4938 20.98C57.4938 21.53 57.3688 22.05 57.1188 22.54C56.8688 23.03 56.5438 23.495 56.1438 23.935C55.7438 24.365 55.2138 24.88 54.5538 25.48L54.1938 25.81C53.4938 26.43 52.9638 26.945 52.6038 27.355H56.6238ZM63.6361 29.305C62.2861 29.305 61.2561 29.025 60.5461 28.465C59.8461 27.905 59.4961 27 59.4961 25.75V21.325C59.4961 20.075 59.8461 19.17 60.5461 18.61C61.2561 18.05 62.2861 17.77 63.6361 17.77C66.4261 17.77 67.8211 18.97 67.8211 21.37V25.75C67.7611 28.12 66.3661 29.305 63.6361 29.305ZM62.0911 25.765C62.0911 26.375 62.1961 26.81 62.4061 27.07C62.6161 27.32 63.0261 27.445 63.6361 27.445C64.2361 27.445 64.6461 27.315 64.8661 27.055C65.0961 26.785 65.2111 26.355 65.2111 25.765V21.34C65.1911 20.91 65.1361 20.575 65.0461 20.335C64.9661 20.095 64.8161 19.92 64.5961 19.81C64.3761 19.69 64.0561 19.63 63.6361 19.63C63.0261 19.63 62.6161 19.76 62.4061 20.02C62.1961 20.28 62.0911 20.72 62.0911 21.34V25.765ZM76.8387 27.355C77.1987 27.355 77.4637 27.445 77.6337 27.625C77.8037 27.805 77.8887 28.035 77.8887 28.315C77.8887 28.555 77.8037 28.765 77.6337 28.945C77.4737 29.135 77.2087 29.23 76.8387 29.23H70.8537C70.4737 29.23 70.1737 29.11 69.9537 28.87C69.7337 28.63 69.6237 28.345 69.6237 28.015C69.6237 27.775 69.7137 27.515 69.8937 27.235C70.3337 26.635 71.1937 25.765 72.4737 24.625C73.3837 23.815 74.0587 23.145 74.4987 22.615C74.9487 22.085 75.1737 21.58 75.1737 21.1C75.1737 20.68 75.0887 20.34 74.9187 20.08C74.7487 19.81 74.4037 19.675 73.8837 19.675C73.4437 19.675 73.0737 19.785 72.7737 20.005C72.4837 20.215 72.3387 20.52 72.3387 20.92C72.3387 21.16 72.2337 21.36 72.0237 21.52C71.8237 21.68 71.5387 21.76 71.1687 21.76C70.8187 21.76 70.5237 21.675 70.2837 21.505C70.0537 21.325 69.9387 21.045 69.9387 20.665C69.9387 20.095 70.1187 19.59 70.4787 19.15C70.8387 18.71 71.3137 18.37 71.9037 18.13C72.5037 17.89 73.1387 17.77 73.8087 17.77C75.0287 17.77 75.9837 18.06 76.6737 18.64C77.3637 19.22 77.7087 20 77.7087 20.98C77.7087 21.53 77.5837 22.05 77.3337 22.54C77.0837 23.03 76.7587 23.495 76.3587 23.935C75.9587 24.365 75.4287 24.88 74.7687 25.48L74.4087 25.81C73.7087 26.43 73.1787 26.945 72.8187 27.355H76.8387ZM87.2518 25.21C87.6618 25.21 87.9418 25.295 88.0918 25.465C88.2418 25.625 88.3168 25.845 88.3168 26.125C88.3168 26.415 88.2368 26.645 88.0768 26.815C87.9268 26.985 87.6518 27.07 87.2518 27.07H86.5318V28.09C86.5318 28.39 86.4318 28.655 86.2318 28.885C86.0418 29.115 85.7068 29.23 85.2268 29.23C84.7468 29.23 84.4068 29.115 84.2068 28.885C84.0168 28.655 83.9218 28.39 83.9218 28.09V27.07H79.4068C79.1368 27.07 78.9318 26.985 78.7918 26.815C78.6518 26.645 78.5818 26.44 78.5818 26.2C78.5818 25.98 78.6418 25.76 78.7618 25.54L82.8718 18.37C83.1018 17.97 83.4318 17.77 83.8618 17.77C84.0518 17.77 84.2568 17.82 84.4768 17.92C84.9168 18.13 85.1368 18.445 85.1368 18.865C85.1368 19.085 85.0668 19.32 84.9268 19.57L81.6118 25.21H83.9218V22.915C83.9218 22.555 84.0268 22.26 84.2368 22.03C84.4468 21.8 84.7768 21.685 85.2268 21.685C85.6668 21.685 85.9918 21.8 86.2018 22.03C86.4218 22.26 86.5318 22.555 86.5318 22.915V25.21H87.2518ZM89.0821 27.31C89.3221 27.09 89.6921 26.98 90.1921 26.98C90.6521 26.98 91.0171 27.105 91.2871 27.355C91.5671 27.595 91.7071 27.92 91.7071 28.33C91.7071 28.73 91.6621 29.095 91.5721 29.425C91.4821 29.755 91.2521 30.095 90.8821 30.445C90.7521 30.565 90.6021 30.655 90.4321 30.715C90.2721 30.785 90.1121 30.82 89.9521 30.82C89.7321 30.82 89.5621 30.765 89.4421 30.655C89.3321 30.555 89.2771 30.43 89.2771 30.28C89.2771 30.14 89.3221 30.03 89.4121 29.95C89.6421 29.75 89.7721 29.485 89.8021 29.155C89.5321 29.165 89.2821 29.07 89.0521 28.87C88.8321 28.67 88.7221 28.425 88.7221 28.135C88.7221 27.805 88.8421 27.53 89.0821 27.31ZM29.4527 50.4C28.9827 50.39 28.5827 50.315 28.2527 50.175C27.9227 50.035 27.6577 49.85 27.4577 49.62C27.2577 49.4 27.1127 49.14 27.0227 48.84C26.9327 48.54 26.8877 48.215 26.8877 47.865C26.8877 47.515 26.9277 47.19 27.0077 46.89C27.0877 46.58 27.2227 46.31 27.4127 46.08C27.6127 45.85 27.8777 45.67 28.2077 45.54C28.5477 45.41 28.9727 45.34 29.4827 45.33H36.0527C36.5627 45.33 36.9827 45.395 37.3127 45.525C37.6527 45.655 37.9177 45.835 38.1077 46.065C38.3077 46.295 38.4477 46.565 38.5277 46.875C38.6077 47.185 38.6477 47.515 38.6477 47.865C38.6477 48.215 38.6027 48.54 38.5127 48.84C38.4227 49.14 38.2727 49.4 38.0627 49.62C37.8627 49.85 37.5977 50.035 37.2677 50.175C36.9477 50.315 36.5527 50.39 36.0827 50.4H29.4527ZM35.4077 48.405C35.6977 48.405 35.9077 48.37 36.0377 48.3C36.1677 48.24 36.2327 48.095 36.2327 47.865C36.2327 47.625 36.1677 47.475 36.0377 47.415C35.9077 47.345 35.6977 47.31 35.4077 47.31H30.1277C29.8377 47.31 29.6277 47.345 29.4977 47.415C29.3677 47.475 29.3027 47.625 29.3027 47.865C29.3027 48.095 29.3677 48.24 29.4977 48.3C29.6277 48.37 29.8377 48.405 30.1277 48.405H35.4077ZM29.3777 44.655C28.5077 44.655 27.8077 44.45 27.2777 44.04C26.7577 43.62 26.4977 42.965 26.4977 42.075C26.4977 41.625 26.5827 41.23 26.7527 40.89C26.3827 40.85 26.1377 40.765 26.0177 40.635C25.9077 40.495 25.8527 40.32 25.8527 40.11C25.8527 39.96 25.8677 39.835 25.8977 39.735C25.9377 39.625 26.0077 39.535 26.1077 39.465C26.2077 39.385 26.3477 39.33 26.5277 39.3C26.7077 39.26 26.9377 39.24 27.2177 39.24H31.4777C31.7577 39.24 31.9877 39.26 32.1677 39.3C32.3477 39.33 32.4877 39.385 32.5877 39.465C32.6877 39.535 32.7527 39.625 32.7827 39.735C32.8227 39.835 32.8427 39.96 32.8427 40.11C32.8427 40.31 32.7877 40.48 32.6777 40.62C32.5677 40.75 32.3377 40.835 31.9877 40.875C32.0677 41.045 32.1327 41.23 32.1827 41.43C32.2327 41.63 32.2577 41.845 32.2577 42.075C32.2577 42.545 32.1877 42.945 32.0477 43.275C31.9177 43.605 31.7227 43.875 31.4627 44.085C31.2127 44.285 30.9077 44.43 30.5477 44.52C30.1977 44.61 29.8077 44.655 29.3777 44.655ZM29.3777 43.005C29.5777 43.005 29.7377 42.97 29.8577 42.9C29.9777 42.83 30.0677 42.745 30.1277 42.645C30.1977 42.545 30.2427 42.435 30.2627 42.315C30.2827 42.195 30.2927 42.085 30.2927 41.985C30.2927 41.875 30.2827 41.76 30.2627 41.64C30.2427 41.52 30.1977 41.41 30.1277 41.31C30.0677 41.2 29.9777 41.115 29.8577 41.055C29.7377 40.985 29.5777 40.95 29.3777 40.95C29.1777 40.95 29.0177 40.985 28.8977 41.055C28.7877 41.115 28.6977 41.2 28.6277 41.31C28.5577 41.41 28.5127 41.52 28.4927 41.64C28.4727 41.76 28.4627 41.875 28.4627 41.985C28.4627 42.085 28.4727 42.195 28.4927 42.315C28.5127 42.435 28.5577 42.545 28.6277 42.645C28.6977 42.745 28.7877 42.83 28.8977 42.9C29.0177 42.97 29.1777 43.005 29.3777 43.005ZM28.1627 38.685C27.6027 38.685 27.2327 38.62 27.0527 38.49C26.8827 38.35 26.7977 38.155 26.7977 37.905C26.7977 37.615 26.8827 37.41 27.0527 37.29C27.2327 37.16 27.6027 37.095 28.1627 37.095H30.5327C31.0927 37.095 31.4577 37.16 31.6277 37.29C31.8077 37.41 31.8977 37.615 31.8977 37.905C31.8977 38.155 31.8077 38.35 31.6277 38.49C31.4577 38.62 31.0927 38.685 30.5327 38.685H28.1627ZM37.5227 44.865C37.2027 44.865 36.9427 44.775 36.7427 44.595C36.5527 44.415 36.4577 44.065 36.4577 43.545V42.18H35.4527V43.53C35.4527 44.05 35.3577 44.4 35.1677 44.58C34.9877 44.76 34.7377 44.85 34.4177 44.85C34.0977 44.85 33.8377 44.76 33.6377 44.58C33.4477 44.4 33.3527 44.05 33.3527 43.53V38.655C33.3527 38.155 33.4477 37.815 33.6377 37.635C33.8277 37.445 34.0827 37.35 34.4027 37.35C34.7127 37.35 34.9627 37.445 35.1527 37.635C35.3527 37.815 35.4527 38.155 35.4527 38.655V40.14H36.4577V38.655C36.4577 38.155 36.5527 37.815 36.7427 37.635C36.9327 37.445 37.1877 37.35 37.5077 37.35C37.8177 37.35 38.0677 37.445 38.2577 37.635C38.4577 37.815 38.5577 38.155 38.5577 38.655V43.545C38.5577 44.065 38.4627 44.415 38.2727 44.595C38.0927 44.775 37.8427 44.865 37.5227 44.865ZM41.4106 45.795C41.1606 45.795 40.9606 45.77 40.8106 45.72C40.6606 45.67 40.5456 45.6 40.4656 45.51C40.3856 45.42 40.3306 45.32 40.3006 45.21C40.2806 45.09 40.2706 44.96 40.2706 44.82C40.2706 44.71 40.2806 44.6 40.3006 44.49C40.3306 44.37 40.3856 44.265 40.4656 44.175C40.5456 44.085 40.6606 44.01 40.8106 43.95C40.9606 43.89 41.1606 43.86 41.4106 43.86H45.6256V42.99H42.5356C42.2556 42.99 42.0356 42.965 41.8756 42.915C41.7156 42.855 41.5906 42.78 41.5006 42.69C41.4206 42.59 41.3706 42.48 41.3506 42.36C41.3306 42.23 41.3206 42.09 41.3206 41.94V38.805C41.3206 38.305 41.4356 37.965 41.6656 37.785C41.9056 37.595 42.1856 37.5 42.5056 37.5C42.8156 37.5 43.1006 37.59 43.3606 37.77C43.6206 37.95 43.7556 38.28 43.7656 38.76H49.9456C49.9556 38.28 50.0856 37.95 50.3356 37.77C50.5956 37.59 50.8856 37.5 51.2056 37.5C51.3656 37.5 51.5156 37.52 51.6556 37.56C51.7956 37.6 51.9206 37.67 52.0306 37.77C52.1406 37.87 52.2256 38.005 52.2856 38.175C52.3556 38.345 52.3906 38.555 52.3906 38.805V41.94C52.3906 42.09 52.3806 42.23 52.3606 42.36C52.3406 42.48 52.2856 42.59 52.1956 42.69C52.1156 42.78 51.9956 42.855 51.8356 42.915C51.6756 42.965 51.4556 42.99 51.1756 42.99H48.0556V43.86H52.3156C52.5656 43.86 52.7656 43.89 52.9156 43.95C53.0656 44.01 53.1806 44.085 53.2606 44.175C53.3406 44.265 53.3906 44.37 53.4106 44.49C53.4406 44.6 53.4556 44.71 53.4556 44.82C53.4556 44.96 53.4406 45.09 53.4106 45.21C53.3906 45.32 53.3406 45.42 53.2606 45.51C53.1806 45.6 53.0656 45.67 52.9156 45.72C52.7656 45.77 52.5656 45.795 52.3156 45.795H41.4106ZM51.1906 50.385C50.8706 50.385 50.5856 50.29 50.3356 50.1C50.0956 49.92 49.9756 49.58 49.9756 49.08V48.525H42.6106C42.3306 48.525 42.1006 48.495 41.9206 48.435C41.7406 48.385 41.6006 48.315 41.5006 48.225C41.4006 48.135 41.3306 48.035 41.2906 47.925C41.2606 47.805 41.2456 47.685 41.2456 47.565C41.2456 47.415 41.2606 47.28 41.2906 47.16C41.3306 47.04 41.4006 46.94 41.5006 46.86C41.6006 46.77 41.7406 46.7 41.9206 46.65C42.1006 46.6 42.3306 46.575 42.6106 46.575H51.1906C51.4706 46.575 51.6906 46.615 51.8506 46.695C52.0106 46.765 52.1306 46.86 52.2106 46.98C52.3006 47.1 52.3556 47.235 52.3756 47.385C52.3956 47.535 52.4056 47.685 52.4056 47.835V49.08C52.4056 49.33 52.3706 49.54 52.3006 49.71C52.2306 49.88 52.1406 50.015 52.0306 50.115C51.9206 50.215 51.7906 50.285 51.6406 50.325C51.5006 50.365 51.3506 50.385 51.1906 50.385ZM49.9456 41.22V40.53H43.7656V41.22H49.9456ZM56.3085 50.37C55.8685 50.37 55.5785 50.29 55.4385 50.13C55.3085 49.97 55.2435 49.75 55.2435 49.47V47.655C55.2435 47.555 55.2485 47.45 55.2585 47.34C55.2785 47.23 55.3185 47.13 55.3785 47.04C55.4385 46.94 55.5285 46.86 55.6485 46.8C55.7685 46.74 55.9335 46.71 56.1435 46.71H63.6135V46.23H56.3835C56.1335 46.23 55.9335 46.215 55.7835 46.185C55.6335 46.145 55.5185 46.095 55.4385 46.035C55.3585 45.965 55.3035 45.885 55.2735 45.795C55.2535 45.695 55.2435 45.585 55.2435 45.465C55.2435 45.365 55.2535 45.265 55.2735 45.165C55.3035 45.065 55.3585 44.98 55.4385 44.91C55.5185 44.83 55.6335 44.77 55.7835 44.73C55.9335 44.68 56.1335 44.655 56.3835 44.655H64.8885C65.1285 44.655 65.3235 44.68 65.4735 44.73C65.6235 44.77 65.7385 44.83 65.8185 44.91C65.9085 44.98 65.9685 45.06 65.9985 45.15C66.0285 45.24 66.0435 45.335 66.0435 45.435V47.46C66.0435 47.69 65.9685 47.87 65.8185 48C65.6785 48.13 65.3685 48.195 64.8885 48.195H57.6735V48.75H65.0085C65.2885 48.75 65.5185 48.77 65.6985 48.81C65.8785 48.85 66.0185 48.905 66.1185 48.975C66.2185 49.045 66.2835 49.125 66.3135 49.215C66.3535 49.315 66.3735 49.425 66.3735 49.545C66.3735 49.685 66.3535 49.805 66.3135 49.905C66.2835 50.015 66.2185 50.1 66.1185 50.16C66.0185 50.23 65.8785 50.28 65.6985 50.31C65.5185 50.35 65.2885 50.37 65.0085 50.37H56.3085ZM58.2285 44.1C57.1085 44.1 56.2885 43.905 55.7685 43.515C55.2585 43.115 55.0035 42.49 55.0035 41.64C55.0035 41.35 55.0485 41.1 55.1385 40.89C54.7785 40.85 54.5385 40.765 54.4185 40.635C54.3085 40.495 54.2535 40.32 54.2535 40.11C54.2535 39.96 54.2685 39.835 54.2985 39.735C54.3385 39.625 54.4085 39.535 54.5085 39.465C54.6085 39.385 54.7485 39.33 54.9285 39.3C55.1085 39.26 55.3385 39.24 55.6185 39.24H60.8385C61.1185 39.24 61.3485 39.26 61.5285 39.3C61.7085 39.33 61.8485 39.385 61.9485 39.465C62.0485 39.535 62.1135 39.625 62.1435 39.735C62.1835 39.835 62.2035 39.96 62.2035 40.11C62.2035 40.32 62.1435 40.495 62.0235 40.635C61.9035 40.765 61.6585 40.85 61.2885 40.89C61.3985 41.13 61.4535 41.38 61.4535 41.64C61.4535 42.55 61.1935 43.19 60.6735 43.56C60.1535 43.92 59.3385 44.1 58.2285 44.1ZM58.2285 42.36C58.5985 42.36 58.8385 42.29 58.9485 42.15C59.0585 42.01 59.1135 41.84 59.1135 41.64C59.1135 41.44 59.0585 41.27 58.9485 41.13C58.8385 40.99 58.5985 40.92 58.2285 40.92C57.8585 40.92 57.6185 40.99 57.5085 41.13C57.3985 41.27 57.3435 41.44 57.3435 41.64C57.3435 41.84 57.3985 42.01 57.5085 42.15C57.6185 42.29 57.8585 42.36 58.2285 42.36ZM56.7135 38.64C56.1535 38.64 55.7835 38.575 55.6035 38.445C55.4335 38.305 55.3485 38.11 55.3485 37.86C55.3485 37.57 55.4335 37.365 55.6035 37.245C55.7835 37.115 56.1535 37.05 56.7135 37.05H59.7435C60.3035 37.05 60.6685 37.115 60.8385 37.245C61.0185 37.365 61.1085 37.57 61.1085 37.86C61.1085 38.11 61.0185 38.305 60.8385 38.445C60.6685 38.575 60.3035 38.64 59.7435 38.64H56.7135ZM64.7835 44.13C64.6235 44.13 64.4685 44.115 64.3185 44.085C64.1785 44.055 64.0485 44 63.9285 43.92C63.8185 43.83 63.7285 43.71 63.6585 43.56C63.5985 43.4 63.5685 43.19 63.5685 42.93V38.655C63.5685 38.155 63.6885 37.815 63.9285 37.635C64.1785 37.445 64.4635 37.35 64.7835 37.35C64.9435 37.35 65.0935 37.37 65.2335 37.41C65.3835 37.45 65.5135 37.52 65.6235 37.62C65.7335 37.72 65.8235 37.855 65.8935 38.025C65.9635 38.195 65.9985 38.405 65.9985 38.655V39.765H66.9435C67.2235 39.765 67.4535 39.8 67.6335 39.87C67.8135 39.93 67.9535 40.01 68.0535 40.11C68.1535 40.21 68.2185 40.325 68.2485 40.455C68.2885 40.575 68.3085 40.695 68.3085 40.815C68.3085 40.965 68.2885 41.105 68.2485 41.235C68.2185 41.365 68.1535 41.48 68.0535 41.58C67.9535 41.67 67.8135 41.745 67.6335 41.805C67.4535 41.865 67.2235 41.895 66.9435 41.895H65.9985V42.93C65.9985 43.19 65.9635 43.4 65.8935 43.56C65.8235 43.71 65.7335 43.83 65.6235 43.92C65.5135 44 65.3835 44.055 65.2335 44.085C65.0935 44.115 64.9435 44.13 64.7835 44.13ZM75.1485 49.845C74.8685 49.845 74.6485 49.815 74.4885 49.755C74.3285 49.705 74.2035 49.63 74.1135 49.53C74.0335 49.44 73.9835 49.33 73.9635 49.2C73.9435 49.08 73.9335 48.945 73.9335 48.795V38.805C73.9335 38.305 74.0535 37.965 74.2935 37.785C74.5435 37.595 74.8285 37.5 75.1485 37.5C75.3085 37.5 75.4585 37.52 75.5985 37.56C75.7485 37.6 75.8785 37.67 75.9885 37.77C76.0985 37.87 76.1885 38.005 76.2585 38.175C76.3285 38.345 76.3635 38.555 76.3635 38.805V47.775H78.5535C78.8335 47.775 79.0635 47.805 79.2435 47.865C79.4235 47.925 79.5635 48 79.6635 48.09C79.7635 48.19 79.8285 48.3 79.8585 48.42C79.8985 48.55 79.9185 48.675 79.9185 48.795C79.9185 48.945 79.8985 49.08 79.8585 49.2C79.8285 49.33 79.7635 49.44 79.6635 49.53C79.5635 49.63 79.4235 49.705 79.2435 49.755C79.0635 49.815 78.8335 49.845 78.5535 49.845H75.1485ZM83.3835 50.22C83.2235 50.22 83.0685 50.2 82.9185 50.16C82.7785 50.12 82.6485 50.05 82.5285 49.95C82.4185 49.85 82.3285 49.715 82.2585 49.545C82.1985 49.375 82.1685 49.16 82.1685 48.9V38.655C82.1685 38.155 82.2885 37.815 82.5285 37.635C82.7785 37.445 83.0635 37.35 83.3835 37.35C83.5435 37.35 83.6935 37.37 83.8335 37.41C83.9835 37.45 84.1135 37.52 84.2235 37.62C84.3335 37.72 84.4235 37.855 84.4935 38.025C84.5635 38.195 84.5985 38.405 84.5985 38.655V42.255H85.5435C85.8235 42.255 86.0535 42.285 86.2335 42.345C86.4135 42.405 86.5535 42.485 86.6535 42.585C86.7535 42.675 86.8185 42.785 86.8485 42.915C86.8885 43.035 86.9085 43.155 86.9085 43.275C86.9085 43.425 86.8885 43.565 86.8485 43.695C86.8185 43.815 86.7535 43.925 86.6535 44.025C86.5535 44.115 86.4135 44.19 86.2335 44.25C86.0535 44.3 85.8235 44.325 85.5435 44.325H84.5985V48.9C84.5985 49.16 84.5635 49.375 84.4935 49.545C84.4235 49.715 84.3335 49.85 84.2235 49.95C84.1135 50.05 83.9835 50.12 83.8335 50.16C83.6935 50.2 83.5435 50.22 83.3835 50.22ZM96.1365 50.22C95.9965 50.22 95.8615 50.2 95.7315 50.16C95.6015 50.12 95.4865 50.05 95.3865 49.95C95.2965 49.85 95.2215 49.715 95.1615 49.545C95.1015 49.375 95.0715 49.16 95.0715 48.9V44.175H93.4965V46.035C93.4965 46.295 93.4915 46.515 93.4815 46.695C93.4815 46.875 93.4815 46.995 93.4815 47.055C93.4715 47.555 93.4165 47.99 93.3165 48.36C93.2165 48.73 93.0515 49.035 92.8215 49.275C92.6015 49.515 92.3115 49.695 91.9515 49.815C91.5915 49.935 91.1465 49.995 90.6165 49.995C90.0765 49.995 89.6265 49.935 89.2665 49.815C88.9165 49.695 88.6315 49.51 88.4115 49.26C88.2015 49.02 88.0465 48.715 87.9465 48.345C87.8465 47.975 87.7815 47.545 87.7515 47.055C87.7415 46.965 87.7365 46.755 87.7365 46.425C87.7365 46.085 87.7315 45.685 87.7215 45.225C87.7215 44.765 87.7215 44.275 87.7215 43.755C87.7215 43.235 87.7215 42.745 87.7215 42.285C87.7315 41.825 87.7365 41.43 87.7365 41.1C87.7365 40.77 87.7415 40.56 87.7515 40.47C87.7815 39.97 87.8415 39.535 87.9315 39.165C88.0315 38.785 88.1865 38.47 88.3965 38.22C88.6165 37.97 88.9015 37.785 89.2515 37.665C89.6115 37.535 90.0665 37.47 90.6165 37.47C91.1365 37.47 91.5715 37.535 91.9215 37.665C92.2715 37.785 92.5565 37.975 92.7765 38.235C92.9965 38.485 93.1615 38.8 93.2715 39.18C93.3815 39.55 93.4515 39.98 93.4815 40.47C93.4815 40.55 93.4815 40.74 93.4815 41.04C93.4915 41.33 93.4965 41.685 93.4965 42.105H95.0715V38.655C95.0715 38.155 95.1765 37.815 95.3865 37.635C95.6065 37.445 95.8565 37.35 96.1365 37.35C96.4065 37.35 96.6465 37.445 96.8565 37.635C97.0765 37.815 97.1865 38.155 97.1865 38.655V48.9C97.1865 49.16 97.1565 49.375 97.0965 49.545C97.0365 49.715 96.9565 49.85 96.8565 49.95C96.7665 50.05 96.6565 50.12 96.5265 50.16C96.3965 50.2 96.2665 50.22 96.1365 50.22ZM90.6165 48.06C90.6965 48.06 90.7715 48.05 90.8415 48.03C90.9115 48.02 90.9715 47.98 91.0215 47.91C91.0715 47.84 91.1115 47.745 91.1415 47.625C91.1815 47.495 91.2065 47.315 91.2165 47.085C91.2265 46.985 91.2315 46.765 91.2315 46.425V42.225C91.2315 41.755 91.2265 41.355 91.2165 41.025C91.2165 40.685 91.2165 40.47 91.2165 40.38C91.2065 40.17 91.1865 40 91.1565 39.87C91.1265 39.74 91.0815 39.645 91.0215 39.585C90.9715 39.515 90.9115 39.47 90.8415 39.45C90.7715 39.43 90.6965 39.42 90.6165 39.42C90.5365 39.42 90.4615 39.435 90.3915 39.465C90.3215 39.485 90.2615 39.53 90.2115 39.6C90.1615 39.67 90.1165 39.775 90.0765 39.915C90.0465 40.045 90.0265 40.215 90.0165 40.425C90.0065 40.515 90.0015 40.735 90.0015 41.085C90.0015 41.425 89.9965 41.83 89.9865 42.3C89.9865 42.76 89.9865 43.255 89.9865 43.785C89.9965 44.305 90.0015 44.795 90.0015 45.255C90.0015 45.715 90.0015 46.115 90.0015 46.455C90.0015 46.795 90.0065 47.005 90.0165 47.085C90.0165 47.315 90.0315 47.495 90.0615 47.625C90.0915 47.745 90.1315 47.84 90.1815 47.91C90.2315 47.98 90.2915 48.02 90.3615 48.03C90.4415 48.05 90.5265 48.06 90.6165 48.06ZM99.3465 50.22C99.2065 50.22 99.0715 50.2 98.9415 50.16C98.8115 50.12 98.6965 50.05 98.5965 49.95C98.5065 49.85 98.4315 49.715 98.3715 49.545C98.3115 49.375 98.2815 49.16 98.2815 48.9V38.655C98.2815 38.155 98.3865 37.815 98.5965 37.635C98.8165 37.445 99.0665 37.35 99.3465 37.35C99.6165 37.35 99.8565 37.445 100.066 37.635C100.286 37.815 100.396 38.155 100.396 38.655V48.9C100.396 49.16 100.366 49.375 100.306 49.545C100.246 49.715 100.166 49.85 100.066 49.95C99.9765 50.05 99.8665 50.12 99.7365 50.16C99.6065 50.2 99.4765 50.22 99.3465 50.22ZM109.774 50.22C109.634 50.22 109.499 50.2 109.369 50.16C109.239 50.12 109.124 50.05 109.024 49.95C108.934 49.85 108.859 49.715 108.799 49.545C108.739 49.375 108.709 49.16 108.709 48.9V44.175H107.074C107.074 44.475 107.039 44.885 106.969 45.405C106.899 45.915 106.784 46.445 106.624 46.995C106.474 47.545 106.269 48.075 106.009 48.585C105.759 49.095 105.439 49.495 105.049 49.785C104.909 49.885 104.764 49.95 104.614 49.98C104.474 50.01 104.334 50.01 104.194 49.98C104.064 49.96 103.939 49.915 103.819 49.845C103.709 49.785 103.614 49.715 103.534 49.635C103.434 49.545 103.364 49.43 103.324 49.29C103.284 49.16 103.269 49.02 103.279 48.87C103.289 48.72 103.319 48.565 103.369 48.405C103.429 48.255 103.504 48.115 103.594 47.985C104.074 47.295 104.394 46.6 104.554 45.9C104.724 45.19 104.809 44.415 104.809 43.575V39.6H102.709C102.429 39.6 102.199 39.575 102.019 39.525C101.839 39.465 101.699 39.39 101.599 39.3C101.499 39.2 101.429 39.09 101.389 38.97C101.359 38.84 101.344 38.7 101.344 38.55C101.344 38.43 101.359 38.31 101.389 38.19C101.429 38.06 101.499 37.95 101.599 37.86C101.699 37.76 101.839 37.68 102.019 37.62C102.199 37.56 102.429 37.53 102.709 37.53H105.919C106.189 37.53 106.399 37.56 106.549 37.62C106.699 37.67 106.814 37.745 106.894 37.845C106.974 37.935 107.024 38.05 107.044 38.19C107.064 38.33 107.074 38.49 107.074 38.67V42.105H108.709V38.655C108.709 38.155 108.814 37.815 109.024 37.635C109.244 37.445 109.494 37.35 109.774 37.35C110.044 37.35 110.284 37.445 110.494 37.635C110.714 37.815 110.824 38.155 110.824 38.655V48.9C110.824 49.16 110.794 49.375 110.734 49.545C110.674 49.715 110.594 49.85 110.494 49.95C110.404 50.05 110.294 50.12 110.164 50.16C110.034 50.2 109.904 50.22 109.774 50.22ZM112.954 50.22C112.814 50.22 112.679 50.2 112.549 50.16C112.419 50.12 112.304 50.05 112.204 49.95C112.114 49.85 112.039 49.715 111.979 49.545C111.919 49.375 111.889 49.16 111.889 48.9V38.655C111.889 38.155 111.994 37.815 112.204 37.635C112.424 37.445 112.674 37.35 112.954 37.35C113.224 37.35 113.464 37.445 113.674 37.635C113.894 37.815 114.004 38.155 114.004 38.655V48.9C114.004 49.16 113.974 49.375 113.914 49.545C113.854 49.715 113.774 49.85 113.674 49.95C113.584 50.05 113.474 50.12 113.344 50.16C113.214 50.2 113.084 50.22 112.954 50.22Z" fill="white"/>
<defs>
<filter id="filter0_i_0_1" x="0" y="0" width="137" height="89.1593" filterUnits="userSpaceOnUse" color-interpolation-filters="sRGB">
<feFlood flood-opacity="0" result="BackgroundImageFix"/>
<feBlend mode="normal" in="SourceGraphic" in2="BackgroundImageFix" result="shape"/>
<feColorMatrix in="SourceAlpha" type="matrix" values="0 0 0 0 0 0 0 0 0 0 0 0 0 0 0 0 0 0 127 0" result="hardAlpha"/>
<feOffset dy="4"/>
<feGaussianBlur stdDeviation="4"/>
<feComposite in2="hardAlpha" operator="arithmetic" k2="-1" k3="1"/>
<feColorMatrix type="matrix" values="0 0 0 0 0 0 0 0 0 0 0 0 0 0 0 0 0 0 0.25 0"/>
<feBlend mode="normal" in2="shape" result="effect1_innerShadow_0_1"/>
</filter>
</defs>
</svg>
